<svg xmlns="http://www.w3.org/2000/svg" viewBox="0 0 1200 650" role="img">
  <defs>
    <linearGradient id="sky" x2="0" y2="1">
      <stop stop-color="#071329"/>
      <stop offset=".62" stop-color="#142e4a"/>
      <stop offset="1" stop-color="#41536a"/>
    </linearGradient>
    <radialGradient id="glow">
      <stop stop-color="#f7dca0" stop-opacity=".7"/>
      <stop offset="1" stop-color="#f7dca0" stop-opacity="0"/>
    </radialGradient>
  </defs>
  <path fill="url(#sky)" d="M0 0h1200v650H0z"/>
  <circle cx="813" cy="270" r="244" fill="url(#glow)" opacity=".36"/>
  <g fill="#fff2ce">
    <circle cx="813" cy="270" r="5"/><circle cx="709" cy="209" r="3"/><circle cx="899" cy="197" r="3"/>
    <circle cx="970" cy="345" r="4"/><circle cx="741" cy="379" r="3"/><circle cx="1039" cy="142" r="2"/>
    <circle cx="660" cy="341" r="2"/><circle cx="549" cy="156" r="2"/><circle cx="1101" cy="401" r="2"/>
    <circle cx="411" cy="294" r="2"/><circle cx="225" cy="103" r="2"/><circle cx="94" cy="227" r="2"/>
    <circle cx="346" cy="139" r="2"/><circle cx="1096" cy="66" r="2"/><circle cx="532" cy="438" r="2"/>
  </g>
  <g fill="#bcd7e8" opacity=".76">
    <circle cx="115" cy="65" r="1.4"/><circle cx="302" cy="245" r="1.5"/><circle cx="466" cy="78" r="1.4"/>
    <circle cx="601" cy="251" r="1.5"/><circle cx="768" cy="68" r="1.5"/><circle cx="925" cy="83" r="1.5"/>
    <circle cx="1143" cy="242" r="1.5"/><circle cx="1041" cy="467" r="1.5"/><circle cx="363" cy="415" r="1.5"/>
    <circle cx="176" cy="380" r="1.5"/><circle cx="576" cy="355" r="1.5"/>
  </g>
  <path d="m709 209 104 61 86-73 71 148-229 34-32-170" fill="none" stroke="#e5c996" stroke-opacity=".45" stroke-width="1.5"/>
  <path d="M0 588q205-82 403-10 149 54 312-20 231-95 485 20v72H0z" fill="#0b2033"/>
  <path d="M0 619q158-45 314 0 185-84 397-18 213-62 489 9v40H0z" fill="#071724"/>
</svg>
